<svg width="144" height="36" viewBox="0 0 144 36" fill="none" xmlns="http://www.w3.org/2000/svg">
<path d="M87.7222 10.2371C85.4054 10.2371 83.5856 10.733 81.7648 11.7228C81.7648 6.43882 81.7648 1.65071 81.9311 0L70.8411 1.98066V2.97147L71.9995 3.13645C73.4877 3.4664 73.9866 4.29128 74.3144 6.27385C74.648 10.2371 74.4808 31.374 74.3144 34.8423C77.2936 35.5032 80.4391 35.999 83.5846 35.999C92.3569 35.999 97.6529 30.5491 97.6529 21.9618C97.6529 15.1921 93.3499 10.2371 87.7222 10.2371ZM83.9153 34.1814C83.253 34.1814 82.4243 34.1814 81.9292 34.0174C81.7629 31.7059 81.5985 21.9618 81.7629 13.3754C82.756 13.0445 83.4174 12.8796 84.246 12.8796C87.8895 12.8796 89.8756 17.1727 89.8756 22.4558C89.8747 29.0634 87.3915 34.1814 83.9153 34.1814ZM29.1305 0.659903H0V2.14564L1.65543 2.31061C3.80595 2.64057 4.63462 3.96133 4.96436 7.09873C5.46233 13.0436 5.29602 23.7784 4.96436 28.8955C4.63366 32.0339 3.8069 33.5206 1.65543 33.6837L0 34.0155V35.3363H18.7029V34.0155L16.7167 33.6837C14.5653 33.5196 13.7375 32.0339 13.4068 28.8955C13.2405 26.748 13.0752 23.2797 13.0752 18.9875L17.0474 19.1524C19.5306 19.1524 20.688 21.1341 21.185 23.9406H22.6751V12.2196H21.185C20.6871 15.0271 19.5306 17.0078 17.0474 17.0078L13.0761 17.1737C13.0761 11.5588 13.2415 6.2748 13.4078 3.1374H19.1999C23.6701 3.1374 25.9869 5.94389 27.6414 10.8989L29.2968 10.403L29.1305 0.659903Z" fill="#C9977A"/>
<path d="M38.5652 9.90704C46.8414 9.90704 50.979 15.5219 50.979 22.9525C50.979 30.0532 46.3444 35.9999 38.0682 35.9999C29.793 35.9999 25.6554 30.3841 25.6554 22.9525C25.6554 15.8519 30.2891 9.90704 38.5652 9.90704ZM38.0682 11.5587C34.4267 11.5587 33.4336 16.5127 33.4336 22.9525C33.4336 29.2273 35.089 34.3463 38.3999 34.3463C42.2039 34.3463 43.1989 29.3923 43.1989 22.9525C43.1989 16.6777 41.5454 11.5587 38.0682 11.5587ZM99.8035 23.1184C99.8035 16.3478 104.106 9.90704 112.548 9.90704C119.498 9.90704 122.809 15.027 122.809 21.7967H107.416C107.25 27.9066 110.229 32.3657 116.189 32.3657C118.837 32.3657 120.161 31.7067 121.817 30.55L122.478 31.3749C120.822 33.6864 117.182 35.9999 112.548 35.9999C105.1 35.999 99.8035 30.715 99.8035 23.1184ZM107.416 19.981L115.196 19.8151C115.196 16.5127 114.699 11.5587 111.886 11.5587C109.073 11.5587 107.581 16.1818 107.416 19.981ZM142.508 11.2288C140.522 10.402 137.874 9.90704 134.895 9.90704C128.773 9.90704 124.964 13.5394 124.964 17.8335C124.964 22.1276 127.775 23.9433 131.752 25.265C135.888 26.7498 137.048 27.9066 137.048 29.8882C137.048 31.8698 135.558 33.6855 132.909 33.6855C129.766 33.6855 127.447 31.8698 125.627 26.9148L124.468 27.2467L124.634 34.5123C126.62 35.3371 130.261 35.999 133.406 35.999C139.862 35.999 144 32.6947 144 27.5766C144 24.1083 142.178 22.1276 137.875 20.475C133.24 18.6593 131.586 17.5036 131.586 15.356C131.586 13.2094 133.078 11.7227 135.064 11.7227C138.042 11.7227 140.028 13.5394 141.52 17.9985L142.677 17.6685L142.508 11.2288ZM72.4948 10.5679C69.6819 8.91814 64.7156 9.74206 62.0681 15.6879L62.2325 9.90799L51.1444 12.0546V13.0454L52.3028 13.2104C53.7938 13.3763 54.4543 14.2012 54.6206 16.3487C54.9513 20.312 54.7859 27.2486 54.6206 30.7159C54.4543 32.6956 53.7938 33.6864 52.3028 33.8524L51.1444 34.0183V35.3391H66.5364V34.0183L64.5502 33.8524C62.8958 33.6864 62.3988 32.6956 62.2325 30.7159C61.9017 27.5776 61.9018 21.3028 62.0681 17.3395C62.8948 16.1828 66.5364 15.1929 69.8463 17.3395L72.4948 10.5679Z" fill="#C9977A"/>
</svg>
