<svg width="111" height="54" viewBox="0 0 111 54" fill="none" xmlns="http://www.w3.org/2000/svg">
<path fill-rule="evenodd" clip-rule="evenodd" d="M80.8317 0C95.7557 0 107.928 12.1289 107.928 26.9991C107.932 32.4069 106.297 37.6898 103.235 42.1549L111 52.3311H94.4071L93.3421 50.9364C89.4828 52.9529 85.1894 54.0043 80.8317 54C67.0991 54 55.6964 43.728 53.9639 30.5013C52.2321 43.728 40.83 54 27.0962 54C12.1722 54 0 41.8711 0 26.9997C0 12.1289 12.1722 0.000590866 27.0962 0.000590866C39.0441 0.000590866 49.227 7.77416 52.8135 18.5061H35.9916C33.7447 16.1709 30.5866 14.7142 27.0968 14.7142C20.3058 14.7142 14.7667 20.2329 14.7667 27.0003C14.7667 33.7677 20.3058 39.2864 27.0968 39.2864C30.8079 39.2864 34.144 37.6388 36.4081 35.0393H28.7711V22.9045H53.8803C53.9105 23.1008 53.939 23.2982 53.9651 23.4957C55.6976 10.2696 67.0991 0 80.8317 0ZM75.6569 27.7576H92.2498L93.0318 28.7827C93.1178 28.201 93.1629 27.6051 93.1629 26.9991C93.1629 20.2323 87.6238 14.713 80.8323 14.713C74.0419 14.713 68.5028 20.2317 68.5028 26.9991C68.5028 33.7665 74.0419 39.2852 80.8323 39.2852C81.9679 39.2852 83.069 39.1303 84.115 38.8418L75.6569 27.7576Z" fill="#C9977A"/>
</svg>
